<svg width="277" height="567" viewBox="0 0 277 567" fill="none" xmlns="http://www.w3.org/2000/svg">
<path d="M276 35.0445V531.956C276 533.704 275.867 535.421 275.618 537.106C275.549 537.52 275.478 537.941 275.4 538.347C275.003 540.438 274.411 542.458 273.647 544.394C273.498 544.792 273.335 545.19 273.164 545.58C272.088 548.022 270.731 550.324 269.141 552.438C268.985 552.633 268.829 552.844 268.673 553.039C267.574 554.444 266.35 555.747 265.048 556.964C264.519 557.456 263.973 557.924 263.411 558.377C263.216 558.548 263.014 558.704 262.811 558.852C262.211 559.32 261.595 559.765 260.964 560.194C260.924 560.226 260.885 560.257 260.847 560.28C260.457 560.53 260.068 560.78 259.677 561.022C259.241 561.287 258.797 561.545 258.352 561.794C257.9 562.037 257.448 562.278 256.988 562.505C256.762 562.614 256.528 562.731 256.302 562.832C256.068 562.949 255.835 563.059 255.6 563.152C254.891 563.464 254.174 563.745 253.441 564.01C252.958 564.19 252.467 564.354 251.975 564.502C251.726 564.581 251.476 564.658 251.227 564.728C250.47 564.931 249.707 565.126 248.935 565.282C248.685 565.337 248.428 565.391 248.163 565.438C247.898 565.485 247.641 565.532 247.384 565.571C246.862 565.657 246.331 565.735 245.801 565.789C245.427 565.844 245.053 565.868 244.679 565.899C244.367 565.922 244.055 565.938 243.744 565.953C243.158 565.985 242.582 566 241.99 566H35.0202C34.4197 566 33.8354 565.985 33.2503 565.953C32.9386 565.938 32.6268 565.922 32.3151 565.899C31.707 565.852 31.1065 565.797 30.4984 565.727C30.7326 565.751 30.9584 565.766 31.1925 565.789C14.2289 563.877 1 549.434 1 531.955V35.0445C1 16.8714 15.3054 1.97527 33.2511 1.04686H33.2749C33.8515 1.01535 34.4289 1 35.0209 1H241.988C242.581 1 243.15 1.01535 243.734 1.04686H243.742C244.054 1.06223 244.366 1.07838 244.677 1.10144C244.974 1.1245 245.285 1.15602 245.589 1.17907C262.654 2.98978 276 17.4877 276 35.0445Z" stroke="#7C7C7C" stroke-width="1.5" stroke-miterlimit="10"/>
<path d="M243.361 14.3452H243.175L242.894 14.3167C242.564 14.3021 242.262 14.3021 241.982 14.3021H212.119C210.41 14.3882 209.032 15.7109 208.86 17.3994C208.853 17.5147 208.845 17.6292 208.845 17.7514V17.7944C208.436 26.5551 201.212 33.5267 192.366 33.5267H141.386H135.613H84.6326C75.7865 33.5267 68.5635 26.5551 68.1543 17.7944V17.7514C68.1543 17.6292 68.1474 17.5139 68.1397 17.3994C67.9677 15.7101 66.5887 14.3882 64.8802 14.3021H35.0171C34.7368 14.3021 34.4358 14.3021 34.1049 14.3167L33.8247 14.3452H33.6381C22.7672 15.0568 14.2803 24.1127 14.2803 35.0515V531.957C14.2803 542.709 22.6666 551.8 33.3655 552.641C33.473 552.648 33.5598 552.656 33.6458 552.663H33.7179L33.7755 552.67H33.8976L33.9406 552.677C34.2992 552.692 34.6585 552.706 35.0179 552.706H135.613H141.387H241.982C242.342 552.706 242.7 552.691 243.059 552.677L243.102 552.67H243.225L243.282 552.663H243.354C243.44 552.656 243.526 552.648 243.635 552.641C254.333 551.8 262.72 542.708 262.72 531.957V35.0515C262.719 24.1127 254.232 15.0568 243.361 14.3452Z" stroke="#7C7C7C" stroke-width="1.5" stroke-miterlimit="10"/>
</svg>
