<svg width="24" height="24" viewBox="0 0 24 24" fill="none" xmlns="http://www.w3.org/2000/svg">
<path d="M14.3273 18.3636H12.6182H10.9091C10.9091 18.3636 10.9091 17.3454 10.9091 16.6545C8.58182 17.1636 7.92727 15.3818 7.92727 15.3818C7.49091 14.5454 7.09091 14.1091 7.09091 14.1091C6.25455 13.6 7.09091 13.6727 7.09091 13.6727C7.92727 13.6727 8.36364 14.5091 8.36364 14.5091C9.09091 15.7818 10.4364 15.5636 10.9091 15.3454C10.9091 14.9091 11.0909 14.2909 11.3455 14.0727C9.49091 13.8545 7.96364 12.8 7.96364 10.6909C7.96364 8.58179 8.4 8.14543 8.8 7.70907C8.72727 7.49089 8.36364 6.72725 8.8 5.59998C8.8 5.59998 9.63636 5.59998 10.4727 6.8727C10.9091 6.43634 12.1818 6.43634 12.5818 6.43634C13.0182 6.43634 14.2909 6.43634 14.6909 6.8727C15.5273 5.59998 16.3636 5.59998 16.3636 5.59998C16.8 6.72725 16.4727 7.52725 16.3636 7.70907C16.8 8.14543 17.2 8.54543 17.2 10.6909C17.2 12.8363 15.6727 13.8909 13.8182 14.0727C14.0727 14.2909 14.2545 15.0182 14.2545 15.3454L14.3273 18.3636Z" fill="currentColor"/>
</svg>
