<svg width="32" height="32" viewBox="0 0 33 32" fill="none" xmlns="http://www.w3.org/2000/svg">
    <path d="M16.2438 20.5161C14.8974 21.8647 13.7445 22.5477 12.8171 22.5477C12.1879 22.5477 11.5863 22.2393 10.9237 21.5759C9.84496 20.4957 9.03828 19.1937 11.982 16.2456C13.3226 14.9036 14.4762 14.2227 15.4102 14.2227C16.0445 14.2227 16.6453 14.529 17.3021 15.1858C17.5858 15.4709 18.0463 15.4702 18.3307 15.1858C18.6151 14.9021 18.6151 14.4417 18.3307 14.1573C16.1703 11.9933 13.8521 12.3126 10.952 15.2171C8.07522 18.099 7.73917 20.4455 9.89442 22.6037C10.8342 23.5449 11.79 24.0025 12.8171 24.0025C14.1635 24.0025 15.6212 23.1987 17.2731 21.5439C17.5567 21.2595 17.5567 20.799 17.2731 20.5154C16.9879 20.231 16.5282 20.231 16.2445 20.5154L16.2438 20.5161Z" fill="currentColor"/>
    <path d="M23.0929 9.39004C22.1589 8.45462 21.2032 8 20.1717 8C18.8181 8 17.3604 8.80158 15.7143 10.4498C15.4306 10.7343 15.4306 11.1947 15.7143 11.4784C15.9987 11.7613 16.4584 11.7621 16.7428 11.4784C18.0834 10.1363 19.237 9.4555 20.171 9.4555C20.8053 9.4555 21.4061 9.76174 22.0629 10.4186C23.1417 11.4987 23.9491 12.8 21.0046 15.7489C19.6582 17.0967 18.5053 17.7797 17.5779 17.7797C16.9487 17.7797 16.3471 17.4713 15.6845 16.808C15.4001 16.5235 14.9403 16.5235 14.6559 16.808C14.3715 17.0916 14.3715 17.5521 14.6559 17.8365C15.5957 18.7777 16.5515 19.2352 17.5786 19.2352C18.925 19.2352 20.3827 18.4315 22.0346 16.7774C24.9114 13.8962 25.2474 11.5497 23.0929 9.39149V9.39004Z" fill="currentColor"/>
</svg>
