<svg width="16" height="14" viewBox="0 0 16 14" fill="none" xmlns="http://www.w3.org/2000/svg">
<path d="M15.3344 13.2014H15.4856L15.1956 12.7629C15.3732 12.7629 15.4667 12.6505 15.4681 12.5122C15.4681 12.5065 15.468 12.5009 15.4676 12.4952C15.4676 12.3073 15.3543 12.2175 15.1216 12.2175H14.7458V13.2014H14.8871V12.7725H15.0609L15.3344 13.2014ZM15.0515 12.6617H14.8876V12.3291H15.0953C15.2026 12.3291 15.325 12.3466 15.325 12.4871C15.325 12.6487 15.2012 12.6617 15.0506 12.6617" fill="currentColor"/>
<path d="M11.5274 11.5272H9.52281V8.38799C9.52281 7.6394 9.50943 6.67574 8.48021 6.67574C7.43615 6.67574 7.27643 7.49136 7.27643 8.33349V11.527H5.27187V5.07146H7.19628V5.95368H7.22321C7.61562 5.28277 8.34521 4.88205 9.12193 4.91087C11.1536 4.91087 11.5283 6.24724 11.5283 7.9858L11.5274 11.5272ZM3.01 4.18902C2.36753 4.18915 1.84662 3.6684 1.8465 3.02596C1.84637 2.38349 2.36712 1.86259 3.00956 1.86246C3.65203 1.86234 4.17293 2.38309 4.17306 3.02552C4.17318 3.66799 3.65247 4.18893 3.01 4.18902ZM4.01228 11.5273H2.00562V5.07146H4.01228V11.5273ZM12.5267 0.000931285H0.998312C0.453468 -0.00522496 0.00665624 0.431212 0 0.976056V12.5523C0.00640624 13.0974 0.453187 13.5343 0.998312 13.5285H12.5267C13.073 13.5353 13.5215 13.0985 13.529 12.5523V0.975243C13.5212 0.429306 13.0727 -0.00709997 12.5267 8.75221e-05" fill="currentColor"/>
<path d="M15.0686 11.7793C14.5591 11.7842 14.15 12.2012 14.155 12.7106C14.1599 13.2201 14.5768 13.6291 15.0863 13.6243C15.5958 13.6194 16.0049 13.2024 15.9999 12.6929C15.9951 12.1904 15.5889 11.7841 15.0863 11.7793H15.0686M15.0897 13.5183C14.643 13.5257 14.2537 13.17 14.2463 12.7233C14.2389 12.2766 14.595 11.9085 15.0416 11.901C15.4884 11.8936 15.8565 12.2497 15.8639 12.6964C15.8639 12.701 15.8639 12.7054 15.8639 12.71C15.8733 13.1469 15.5266 13.5088 15.0897 13.5183H15.0688H15.0897Z" fill="currentColor"/>
</svg>
