<svg width="24" height="24" viewBox="0 0 24 24" fill="none" xmlns="http://www.w3.org/2000/svg">
<rect width="24" height="24" rx="6" fill="#603BFB"/>
<mask id="path-2-inside-1_1_16" fill="white">
<path d="M9.39825 14.0051C8.98669 12.7891 8.976 11.4731 9.36775 10.2506C9.75951 9.02804 10.5331 7.96339 11.5747 7.21306C12.6164 6.46273 13.8713 6.06629 15.1549 6.08199C16.4386 6.09769 17.6834 6.5247 18.7064 7.30029C19.7294 8.07587 20.4767 9.15912 20.8384 10.3909C21.2002 11.6226 21.1573 12.9379 20.7161 14.1435C20.2749 15.3491 19.4587 16.3814 18.3874 17.0887C17.316 17.796 16.0461 18.1411 14.7641 18.0731L14.8435 16.5752C15.8049 16.6262 16.7574 16.3674 17.5609 15.8369C18.3644 15.3064 18.9766 14.5322 19.3075 13.628C19.6384 12.7238 19.6705 11.7374 19.3992 10.8135C19.1279 9.88972 18.5675 9.07729 17.8002 8.4956C17.0329 7.91391 16.0993 7.59365 15.1366 7.58188C14.1738 7.5701 13.2327 7.86743 12.4514 8.43018C11.6702 8.99293 11.09 9.79142 10.7962 10.7083C10.5024 11.6252 10.5104 12.6122 10.8191 13.5242L9.39825 14.0051Z"/>
</mask>
<path d="M9.39825 14.0051C8.98669 12.7891 8.976 11.4731 9.36775 10.2506C9.75951 9.02804 10.5331 7.96339 11.5747 7.21306C12.6164 6.46273 13.8713 6.06629 15.1549 6.08199C16.4386 6.09769 17.6834 6.5247 18.7064 7.30029C19.7294 8.07587 20.4767 9.15912 20.8384 10.3909C21.2002 11.6226 21.1573 12.9379 20.7161 14.1435C20.2749 15.3491 19.4587 16.3814 18.3874 17.0887C17.316 17.796 16.0461 18.1411 14.7641 18.0731L14.8435 16.5752C15.8049 16.6262 16.7574 16.3674 17.5609 15.8369C18.3644 15.3064 18.9766 14.5322 19.3075 13.628C19.6384 12.7238 19.6705 11.7374 19.3992 10.8135C19.1279 9.88972 18.5675 9.07729 17.8002 8.4956C17.0329 7.91391 16.0993 7.59365 15.1366 7.58188C14.1738 7.5701 13.2327 7.86743 12.4514 8.43018C11.6702 8.99293 11.09 9.79142 10.7962 10.7083C10.5024 11.6252 10.5104 12.6122 10.8191 13.5242L9.39825 14.0051Z" stroke="white" stroke-width="6" mask="url(#path-2-inside-1_1_16)"/>
<mask id="path-3-inside-2_1_16" fill="white">
<path d="M14.5963 9.71762C15.1089 10.9136 15.2189 12.2439 14.9096 13.5079C14.6002 14.7718 13.8884 15.901 12.8813 16.7251C11.8742 17.5491 10.6265 18.0235 9.32634 18.0766C8.02615 18.1296 6.74395 17.7586 5.67304 17.0194C4.60214 16.2801 3.80059 15.2128 3.38924 13.9782C2.97789 12.7437 2.97904 11.4089 3.39252 10.1751C3.806 8.94123 4.60939 7.87526 5.68156 7.13787C6.75374 6.40049 8.03658 6.03166 9.33668 6.08698L9.2729 7.58563C8.29783 7.54413 7.3357 7.82076 6.53156 8.3738C5.72743 8.92683 5.12489 9.72631 4.81478 10.6517C4.50467 11.5771 4.50381 12.5782 4.81232 13.5041C5.12083 14.43 5.72199 15.2305 6.52517 15.7849C7.32835 16.3393 8.29 16.6176 9.26514 16.5778C10.2403 16.538 11.176 16.1822 11.9314 15.5642C12.6867 14.9461 13.2206 14.0993 13.4526 13.1513C13.6846 12.2033 13.6021 11.2056 13.2176 10.3086L14.5963 9.71762Z"/>
</mask>
<path d="M14.5963 9.71762C15.1089 10.9136 15.2189 12.2439 14.9096 13.5079C14.6002 14.7718 13.8884 15.901 12.8813 16.7251C11.8742 17.5491 10.6265 18.0235 9.32634 18.0766C8.02615 18.1296 6.74395 17.7586 5.67304 17.0194C4.60214 16.2801 3.80059 15.2128 3.38924 13.9782C2.97789 12.7437 2.97904 11.4089 3.39252 10.1751C3.806 8.94123 4.60939 7.87526 5.68156 7.13787C6.75374 6.40049 8.03658 6.03166 9.33668 6.08698L9.2729 7.58563C8.29783 7.54413 7.3357 7.82076 6.53156 8.3738C5.72743 8.92683 5.12489 9.72631 4.81478 10.6517C4.50467 11.5771 4.50381 12.5782 4.81232 13.5041C5.12083 14.43 5.72199 15.2305 6.52517 15.7849C7.32835 16.3393 8.29 16.6176 9.26514 16.5778C10.2403 16.538 11.176 16.1822 11.9314 15.5642C12.6867 14.9461 13.2206 14.0993 13.4526 13.1513C13.6846 12.2033 13.6021 11.2056 13.2176 10.3086L14.5963 9.71762Z" stroke="white" stroke-width="6" mask="url(#path-3-inside-2_1_16)"/>
</svg>
