<svg width="20" height="20" viewBox="0 0 20 20" fill="none" xmlns="http://www.w3.org/2000/svg">
<path d="M4.87502 14.25C5.58335 13.7084 6.37502 13.2813 7.25002 12.9688C8.12502 12.6563 9.04169 12.5 10 12.5C10.9584 12.5 11.875 12.6563 12.75 12.9688C13.625 13.2813 14.4167 13.7084 15.125 14.25C15.6111 13.6806 15.9896 13.0347 16.2604 12.3125C16.5313 11.5903 16.6667 10.8195 16.6667 10C16.6667 8.1528 16.0174 6.57988 14.7188 5.28127C13.4202 3.98266 11.8472 3.33335 10 3.33335C8.1528 3.33335 6.57988 3.98266 5.28127 5.28127C3.98266 6.57988 3.33335 8.1528 3.33335 10C3.33335 10.8195 3.46877 11.5903 3.7396 12.3125C4.01044 13.0347 4.38891 13.6806 4.87502 14.25ZM10 10.8334C9.18058 10.8334 8.4896 10.5521 7.9271 9.9896C7.3646 9.4271 7.08335 8.73613 7.08335 7.91669C7.08335 7.09724 7.3646 6.40627 7.9271 5.84377C8.4896 5.28127 9.18058 5.00002 10 5.00002C10.8195 5.00002 11.5104 5.28127 12.0729 5.84377C12.6354 6.40627 12.9167 7.09724 12.9167 7.91669C12.9167 8.73613 12.6354 9.4271 12.0729 9.9896C11.5104 10.5521 10.8195 10.8334 10 10.8334ZM10 18.3334C8.84724 18.3334 7.76391 18.1146 6.75002 17.6771C5.73613 17.2396 4.85419 16.6459 4.10419 15.8959C3.35419 15.1459 2.76044 14.2639 2.32294 13.25C1.88544 12.2361 1.66669 11.1528 1.66669 10C1.66669 8.84724 1.88544 7.76391 2.32294 6.75002C2.76044 5.73613 3.35419 4.85419 4.10419 4.10419C4.85419 3.35419 5.73613 2.76044 6.75002 2.32294C7.76391 1.88544 8.84724 1.66669 10 1.66669C11.1528 1.66669 12.2361 1.88544 13.25 2.32294C14.2639 2.76044 15.1459 3.35419 15.8959 4.10419C16.6459 4.85419 17.2396 5.73613 17.6771 6.75002C18.1146 7.76391 18.3334 8.84724 18.3334 10C18.3334 11.1528 18.1146 12.2361 17.6771 13.25C17.2396 14.2639 16.6459 15.1459 15.8959 15.8959C15.1459 16.6459 14.2639 17.2396 13.25 17.6771C12.2361 18.1146 11.1528 18.3334 10 18.3334ZM10 16.6667C10.7361 16.6667 11.4306 16.559 12.0834 16.3438C12.7361 16.1285 13.3334 15.8195 13.875 15.4167C13.3334 15.0139 12.7361 14.7049 12.0834 14.4896C11.4306 14.2743 10.7361 14.1667 10 14.1667C9.26391 14.1667 8.56946 14.2743 7.91669 14.4896C7.26391 14.7049 6.66669 15.0139 6.12502 15.4167C6.66669 15.8195 7.26391 16.1285 7.91669 16.3438C8.56946 16.559 9.26391 16.6667 10 16.6667ZM10 9.16669C10.3611 9.16669 10.6597 9.04863 10.8959 8.81252C11.132 8.57641 11.25 8.2778 11.25 7.91669C11.25 7.55558 11.132 7.25696 10.8959 7.02085C10.6597 6.78474 10.3611 6.66669 10 6.66669C9.63891 6.66669 9.3403 6.78474 9.10419 7.02085C8.86808 7.25696 8.75002 7.55558 8.75002 7.91669C8.75002 8.2778 8.86808 8.57641 9.10419 8.81252C9.3403 9.04863 9.63891 9.16669 10 9.16669Z" fill="currentColor"/>
</svg>
