<svg width="16" height="12" viewBox="0 0 16 12" fill="none" xmlns="http://www.w3.org/2000/svg">
<path d="M15.1495 2.39181C14.8495 1.46863 13.8568 0.909534 12.9432 0.781352C9.65697 0.432258 6.34303 0.432258 3.05682 0.781352C2.14318 0.909534 1.14773 1.46317 0.850454 2.39181C0.382734 4.77498 0.382734 7.22636 0.850454 9.60954C1.15045 10.5314 2.14318 11.0918 3.05682 11.22C6.34303 11.5691 9.65697 11.5691 12.9432 11.22C13.8568 11.0918 14.8523 10.5382 15.1495 9.60954C15.6173 7.22636 15.6173 4.77498 15.1495 2.39181ZM6.20545 8.87453V3.12544L10.8855 5.99999C9.30773 6.96953 7.77636 7.90908 6.20545 8.87453Z" fill="currentColor"/>
</svg>
